<?xml version="1.0" encoding="UTF-8"?>
<svg width="87px" height="100px" viewBox="0 0 87 100" version="1.1" xmlns="http://www.w3.org/2000/svg" xmlns:xlink="http://www.w3.org/1999/xlink">
    <!-- Generator: Sketch 3.8.1 (29687) - http://www.bohemiancoding.com/sketch -->
    <title>Group</title>
    <desc>Created with Sketch.</desc>
    <defs></defs>
    <g id="Page-2" stroke="none" stroke-width="1" fill="none" fill-rule="evenodd">
        <g id="Mobile-Portrait" transform="translate(-375.000000, -57.000000)">
            <g id="Group" transform="translate(414.500000, 100.590909) scale(1, -1) rotate(-180.000000) translate(-414.500000, -100.590909) translate(362.000000, 44.000000)">
                <path d="M30.1577341,70.9839891 C18.8527815,58.9638399 17.0191995,41.0440299 25.6542741,27.0350068 C28.3868385,22.5628901 34.7238806,16.599118 39.2273406,14.2070556 L39.911194,13.8337856 L39.911194,16.7230665 L39.911194,19.6109227 L37.2085482,21.8163501 C31.4000678,26.4437585 27.4565129,32.9660109 25.9035957,40.4200136 C25.313772,43.152578 25.4063772,49.550882 26.0588874,52.532768 C28.0149932,61.3843962 33.8861601,69.2116689 41.8672999,73.4971506 C58.9807327,82.7220488 80.4423338,73.9316825 86.2807327,55.328019 C87.9575984,49.9854138 88.1442334,43.9290366 86.8092944,38.7118046 C85.9701493,35.32673 83.6407734,30.45 81.621981,27.8100407 L80.0690638,25.759905 L81.0321574,25.2014247 C81.5592944,24.8908412 82.4910448,24.2383311 83.1122117,23.7411126 C83.7333786,23.2752374 84.3232022,22.8720488 84.417232,22.8720488 C84.8831072,22.8720488 88.8893487,29.4256445 89.9450475,31.8789688 C95.1637042,43.9917232 93.4554953,57.6573948 85.3803256,68.217232 C83.5780868,70.6092944 79.2612619,74.6468792 76.8706242,76.2297151 C72.9256445,78.8383311 68.2982361,80.7645183 63.7634328,81.6962687 C60.7502035,82.3202849 55.0357531,82.5681818 52.053867,82.1649932 C43.8234057,81.1406377 35.9348711,77.1030529 30.1577341,70.9839891 Z" id="Shape" fill="#FFFFFF" transform="translate(56.582321, 48.097562) rotate(-153.000000) translate(-56.582321, -48.097562) "></path>
                <path d="M54.0413161,69.7729986 C44.6611262,68.7785617 36.9278833,62.4429444 33.7907056,53.1567843 C33.0455902,50.890095 32.9515604,50.2375848 32.9515604,46.013365 C32.9515604,41.69654 33.0142469,41.1679783 33.7907056,38.8699457 C34.8464043,35.8567164 36.2753731,33.2794437 38.2628223,30.7947761 L39.7530529,28.9312754 L39.8456581,33.1554953 C39.9083446,37.1617368 39.8770014,37.5350068 38.9765943,40.2063094 C38.2001357,42.5356852 38.044844,43.4987788 38.044844,45.9207598 C38.044844,51.3873134 39.5977612,55.1755767 43.4800543,59.089213 C47.2996608,62.9715061 51.3685889,64.6483718 56.8351425,64.6170285 C65.158209,64.5557666 72.0850746,59.2131615 74.5697422,50.9827001 C74.9415875,49.7090231 75.1282225,48.1247626 75.1282225,46.013365 C75.0968792,43.3734057 74.9729308,42.5342605 74.2278155,40.5781547 C73.4513569,38.4966757 73.3274084,37.7829037 73.2333786,33.6213704 C73.0780868,28.3414518 73.016825,28.4041384 75.4701493,31.5712347 C78.7312754,35.7954545 80.315536,40.5468114 80.315536,46.013365 C80.315536,51.1693351 79.0418589,55.4248982 76.3092944,59.4311398 C74.8190638,61.6052239 71.4012212,64.9276119 69.227137,66.2953189 C64.9430801,68.99654 59.2599729,70.3001357 54.0413161,69.7729986 L54.0413161,69.7729986 Z" id="Shape" fill="#FFFFFF" transform="translate(56.633548, 49.409719) rotate(-153.000000) translate(-56.633548, -49.409719) "></path>
                <path d="M23.2475701,93.9031514 L12.9055551,62.8807274 L43.9316003,73.2191213 L23.2475701,93.9031514 Z M60.436819,105.29168 L41.2700523,86.1249132 L53.1945115,74.1968328 C54.0816942,73.3096501 54.4474307,72.0277617 54.1577384,70.8074329 C53.8716673,69.5871041 52.97,68.6021503 51.7786404,68.2038234 L8.32479561,53.7192084 C7.02480142,53.2882911 5.58720339,53.6214373 4.62035534,54.5955276 C3.64988614,55.5623757 3.31311885,56.9963526 3.74403614,58.2999679 L18.2286511,101.753813 C18.626978,102.941551 19.6119318,103.843218 20.8322606,104.132911 C21.1110894,104.198091 21.3862971,104.230682 21.665126,104.230682 C22.6138682,104.230682 23.5408836,103.854082 24.2252817,103.166063 L36.1497409,91.2452246 L55.3165076,110.40837 L60.436819,105.29168 Z" id="Fill-379" fill="#8DBA0F" transform="translate(31.998183, 81.971224) rotate(85.000000) translate(-31.998183, -81.971224) "></path>
            </g>
        </g>
    </g>
</svg>