<?xml version="1.0" encoding="UTF-8"?>
<svg width="70px" height="103px" viewBox="0 0 70 103" version="1.1" xmlns="http://www.w3.org/2000/svg" xmlns:xlink="http://www.w3.org/1999/xlink">
    <!-- Generator: Sketch 3.8.1 (29687) - http://www.bohemiancoding.com/sketch -->
    <title>Group</title>
    <desc>Created with Sketch.</desc>
    <defs></defs>
    <g id="Page-2" stroke="none" stroke-width="1" fill="none" fill-rule="evenodd">
        <g id="Group" transform="translate(35.000000, 50.992537) scale(1, -1) translate(-35.000000, -50.992537) translate(0.000000, -0.507463)">
            <path d="M25.1728358,102.254328 C19.1371642,101.503134 13.3522388,98.5422388 9.11567164,94.0549254 C0.825373134,85.2401493 -0.519253731,72.0989552 5.81313433,61.8256716 C7.81701493,58.5461194 12.4641791,54.1726866 15.7667164,52.4185075 L16.268209,52.1447761 L16.268209,54.2635821 L16.268209,56.3813433 L14.2862687,57.9986567 C10.0267164,61.3920896 7.13477612,66.1750746 5.99597015,71.6413433 C5.56343284,73.6452239 5.63134328,78.3373134 6.10985075,80.5240299 C7.54432836,87.0152239 11.8498507,92.7552239 17.7026866,95.8979104 C30.2525373,102.662836 45.9910448,96.2165672 50.2725373,82.5738806 C51.5022388,78.6559701 51.6391045,74.2146269 50.6601493,70.3886567 C50.0447761,67.9062687 48.3365672,64.33 46.8561194,62.3940299 L45.7173134,60.890597 L46.4235821,60.4810448 C46.8101493,60.2532836 47.4934328,59.7747761 47.9489552,59.4101493 C48.4044776,59.0685075 48.8370149,58.7728358 48.9059701,58.7728358 C49.2476119,58.7728358 52.1855224,63.578806 52.9597015,65.3779104 C56.7867164,74.260597 55.5340299,84.2820896 49.6122388,92.0259701 C48.290597,93.7801493 45.1249254,96.7410448 43.371791,97.901791 C40.478806,99.8147761 37.0853731,101.227313 33.7598507,101.910597 C31.5501493,102.368209 27.3595522,102.55 25.1728358,102.254328 L25.1728358,102.254328 Z" id="Shape" fill="#FFFFFF"></path>
            <path d="M26.6302985,93.1668657 C19.7514925,92.4376119 14.0804478,87.7914925 11.7798507,80.9816418 C11.2334328,79.319403 11.1644776,78.8408955 11.1644776,75.7431343 C11.1644776,72.5774627 11.2104478,72.1898507 11.7798507,70.5046269 C12.5540299,68.2949254 13.6019403,66.4049254 15.059403,64.5828358 L16.1522388,63.2162687 L16.2201493,66.3140299 C16.2661194,69.2519403 16.2431343,69.5256716 15.5828358,71.4846269 C15.0134328,73.1928358 14.8995522,73.8991045 14.8995522,75.6752239 C14.8995522,79.6840299 16.0383582,82.4620896 18.8853731,85.3320896 C21.6864179,88.1791045 24.6702985,89.408806 28.6791045,89.3858209 C34.7826866,89.3408955 39.8623881,85.4229851 41.6844776,79.3873134 C41.9571642,78.4532836 42.0940299,77.2914925 42.0940299,75.7431343 C42.0710448,73.8071642 41.9801493,73.191791 41.4337313,71.7573134 C40.8643284,70.2308955 40.7734328,69.7074627 40.7044776,66.6556716 C40.590597,62.7837313 40.5456716,62.8297015 42.3447761,65.1522388 C44.7362687,68.25 45.8980597,71.7343284 45.8980597,75.7431343 C45.8980597,79.5241791 44.9640299,82.6449254 42.9601493,85.5828358 C41.8673134,87.1771642 39.3608955,89.6135821 37.7665672,90.6165672 C34.6249254,92.5974627 30.4573134,93.5534328 26.6302985,93.1668657 L26.6302985,93.1668657 Z" id="Shape" fill="#FFFFFF"></path>
            <path d="M27.0179104,83.8056716 C24.3756716,83.2822388 22.1659701,81.5970149 21.0731343,79.2964179 L20.4807463,78.0207463 L20.4128358,57.8179104 C20.3898507,44.9034328 20.2759701,37.5920896 20.1391045,37.5920896 C19.7744776,37.5920896 18.6356716,39.3002985 16.9964179,42.3071642 C14.4680597,46.9992537 12.7598507,48.4567164 9.27552239,48.9801493 C4.58343284,49.709403 0.0511940299,46.5886567 0.0052238806,42.6028358 C-0.017761194,41.3731343 0.232985075,40.8486567 10.2095522,21.8765672 C17.1332836,8.64343284 20.6865672,2.12925373 21.2329851,1.53686567 C22.7364179,-0.0344776119 22.2119403,0.0104477612 42.1191045,0.0104477612 C53.1425373,0.0104477612 60.4089552,0.101343284 61.1371642,0.238208955 C64.8722388,0.944477612 67.4465672,3.54074627 68.5164179,7.70835821 C69.4723881,11.3295522 70.2476119,28.1849254 69.8829851,36.9077612 C69.6552239,42.0783582 69.6322388,42.3061194 69.0398507,43.4679104 C68.1967164,45.0622388 66.8531343,46.3828358 65.258806,47.1120896 C64.1659701,47.6355224 63.6874627,47.7274627 61.819403,47.7274627 C60.6346269,47.7274627 59.4508955,47.6595522 59.2001493,47.5676119 C58.8125373,47.4077612 58.6767164,47.5446269 58.3350746,48.4107463 C57.7656716,49.7773134 55.8067164,51.5534328 54.1214925,52.191791 C52.7319403,52.7152239 50.2725373,52.8980597 48.8150746,52.5564179 C48.0408955,52.3735821 47.9949254,52.3965672 47.8580597,53.0119403 C47.6762687,53.9689552 46.3546269,55.8129851 45.261791,56.6331343 C43.2808955,58.1365672 40.1831343,58.7968657 37.631791,58.2504478 L36.7897015,58.0676119 L36.7207463,68.0441791 C36.6528358,77.7470149 36.6298507,78.0426866 36.1513433,79.090597 C35.4910448,80.5480597 34.6479104,81.5959701 33.6010448,82.3241791 C31.7779104,83.5998507 29.0228358,84.2152239 27.0179104,83.8056716 L27.0179104,83.8056716 Z M29.82,78.5891045 C30.1386567,78.4752239 30.6631343,78.0876119 30.958806,77.7689552 L31.528209,77.1546269 L31.528209,60.7777612 C31.528209,43.1032836 31.5052239,43.581791 32.7129851,42.7386567 C33.3732836,42.2831343 34.5580597,42.2831343 35.4231343,42.7386567 C36.5389552,43.3080597 36.7667164,44.1961194 36.7667164,48.1140299 C36.7667164,50.9150746 36.8346269,51.7122388 37.1313433,52.1228358 C38.3610448,53.8770149 41.8683582,53.6262687 42.8483582,51.7132836 C43.0531343,51.3037313 43.1440299,49.5725373 43.1440299,45.6097015 L43.1440299,40.0525373 L43.8043284,39.4152239 C44.9201493,38.2764179 46.1958209,38.2304478 47.4025373,39.2783582 C48.0398507,39.8247761 48.0398507,39.8707463 48.1537313,42.9455224 L48.2686567,46.0641791 L49.111791,46.8383582 C49.7950746,47.4537313 50.1597015,47.6125373 50.8879104,47.6125373 C51.4113433,47.6125373 52.1176119,47.4526866 52.4822388,47.2708955 C53.7808955,46.5876119 53.848806,46.3368657 53.848806,41.5089552 C53.848806,36.6120896 54.0086567,35.8149254 55.1923881,35.2225373 C56.0574627,34.7670149 56.8776119,34.7670149 57.6977612,35.1995522 C58.7226866,35.7229851 59.0873134,36.7938806 59.0873134,39.1853731 C59.0873134,41.1673134 59.1102985,41.3041791 59.7476119,41.9185075 C60.909403,43.0802985 62.5946269,43.1032836 63.8243284,41.9644776 C64.3707463,41.44 64.5535821,41.0534328 64.6674627,40.0055224 C64.9631343,37.7738806 64.6214925,19.2102985 64.2349254,14.5871642 C63.6885075,8.25477612 63.1420896,6.61552239 61.2740299,5.72746269 C60.3180597,5.24895522 60.1122388,5.24895522 42.5746269,5.29492537 L24.8552239,5.36283582 L14.9695522,24.0402985 L5.06089552,42.7167164 L5.72119403,43.218209 C6.47238806,43.8325373 7.54328358,44.0832836 8.70507463,43.8785075 C10.2544776,43.6277612 10.6410448,43.1492537 13.5110448,38.0476119 C15.9025373,33.7880597 17.5658209,32.3535821 20.1620896,32.3535821 C21.7104478,32.3535821 22.6444776,32.6952239 23.7383582,33.6062687 C25.3786567,34.9728358 25.241791,33.3785075 25.3786567,56.2685075 C25.4925373,75.0138806 25.5385075,76.9498507 25.8801493,77.4732836 C26.6083582,78.5891045 28.4304478,79.1135821 29.82,78.5891045 L29.82,78.5891045 Z" id="Shape" fill="#8DBA0F"></path>
        </g>
    </g>
</svg>