<?xml version="1.0" encoding="UTF-8"?>
<svg width="101px" height="121px" viewBox="0 0 101 121" version="1.1" xmlns="http://www.w3.org/2000/svg" xmlns:xlink="http://www.w3.org/1999/xlink">
    <!-- Generator: Sketch 3.8.1 (29687) - http://www.bohemiancoding.com/sketch -->
    <title>Shape</title>
    <desc>Created with Sketch.</desc>
    <defs></defs>
    <g id="Page-1" stroke="none" stroke-width="1" fill="none" fill-rule="evenodd">
        <path d="M40.0769231,120.930233 L40.0769231,92.3100775 C36.9435897,93.4521964 33.6102564,94.0568475 30.0769231,94.0568475 C13.4102564,94.0568475 0.0769230769,80.620155 0.0769230769,63.8242894 C0.0769230769,55.2919897 3.41025641,47.6330749 9.14358974,42.124031 C7.61025641,38.496124 6.74358974,34.4651163 6.74358974,30.2325581 C6.74358974,13.4366925 20.0769231,0 36.7435897,0 C47.1435897,0 56.3435897,5.374677 61.7435897,13.4366925 L63.4102564,13.4366925 C73.134861,13.4366925 82.4611712,17.329723 89.3375051,24.2593618 C96.2138389,31.1890006 100.076923,40.5876077 100.076923,50.3875969 C100.076923,60.1875861 96.2138389,69.5861932 89.3375051,76.515832 C82.4611712,83.4454708 73.134861,87.3385013 63.4102564,87.3385013 C60.0769231,87.3385013 56.7435897,86.8682171 53.4102564,85.9276486 L53.4102564,120.930233 L40.0769231,120.930233 L40.0769231,120.930233 Z" id="Shape" fill="#BABABA"></path>
    </g>
</svg>